<?xml version="1.0" standalone="no"?>
<!DOCTYPE svg PUBLIC "-//W3C//DTD SVG 20010904//EN"
 "http://www.w3.org/TR/2001/REC-SVG-20010904/DTD/svg10.dtd">
<svg version="1.0" xmlns="http://www.w3.org/2000/svg"
 width="300.000000pt" height="300.000000pt" viewBox="0 0 300.000000 300.000000"
 preserveAspectRatio="xMidYMid meet">
<metadata>
Created by potrace 1.11, written by Peter Selinger 2001-2013
</metadata>
<g transform="translate(0.000000,300.000000) scale(0.100000,-0.100000)"
fill="#000000" stroke="none">
<path d="M0 1500 l0 -1500 1500 0 1500 0 0 1500 0 1500 -1500 0 -1500 0 0
-1500z m1492 809 c30 -8 46 -22 77 -67 21 -31 38 -59 37 -62 -3 -13 59 -98 68
-93 5 3 6 1 2 -6 -4 -6 -1 -14 7 -17 7 -2 35 -33 60 -68 35 -47 55 -66 84 -75
47 -15 91 -66 76 -89 -5 -9 -41 -35 -78 -58 -51 -31 -74 -40 -89 -34 -22 7
-35 40 -18 40 6 0 24 23 41 50 17 28 27 50 21 50 -5 0 -64 81 -130 180 -83
124 -127 180 -140 180 -10 0 -20 7 -24 15 -3 8 -12 15 -19 15 -17 0 -49 34
-40 43 9 9 22 9 65 -4z m-53 -414 l-111 -195 -104 0 c-57 0 -104 4 -104 9 0
10 196 350 209 364 5 4 14 -5 20 -21 12 -28 9 -37 -53 -143 -88 -155 -87 -149
-38 -149 l39 0 92 160 c50 88 91 165 91 170 0 6 -7 25 -16 41 -14 28 -14 33 1
56 l17 26 35 -62 34 -61 -112 -195z m226 32 l56 -97 -18 -30 c-9 -17 -20 -30
-23 -30 -4 0 -17 19 -30 43 -46 83 -46 83 -65 48 -16 -32 -15 -33 20 -97 l36
-64 -111 0 c-60 0 -110 2 -110 5 0 4 7 19 15 35 13 25 22 30 51 30 l35 0 -17
32 c-14 28 -15 34 -2 57 72 126 100 172 103 169 2 -2 29 -47 60 -101z m820
-227 c12 -5 -142 -8 -365 -8 -212 0 -369 4 -350 8 49 10 691 10 715 0z m-1670
-215 c0 -102 -3 -125 -20 -154 -32 -54 -81 -74 -201 -79 -57 -3 -104 -1 -104
3 0 4 14 25 31 46 30 38 32 39 94 39 57 0 66 3 84 26 18 23 21 41 21 136 l0
109 48 -3 47 -3 0 -120z m303 108 c11 -10 68 -91 126 -180 l106 -163 -281 0
-280 0 20 29 c23 31 96 67 159 77 l41 6 -6 -36 -6 -37 37 18 c35 16 40 16 66
1 35 -20 40 -16 33 28 -5 28 -1 40 18 60 20 21 21 27 9 34 -8 5 -24 10 -36 10
-14 0 -26 12 -38 38 l-18 37 -15 -31 c-14 -28 -21 -32 -71 -38 -30 -4 -56 -5
-58 -3 -5 5 64 107 94 140 30 31 70 35 100 10z m362 -58 c0 -41 3 -75 6 -75 3
0 42 34 87 75 l82 75 62 0 c35 0 63 -4 63 -8 0 -6 -146 -123 -191 -153 -12 -8
-11 -12 6 -24 11 -9 62 -50 114 -93 l94 -77 -72 -3 -72 -3 -80 73 c-44 40 -84
75 -90 76 -5 2 -9 -29 -9 -72 l0 -76 -45 0 -45 0 0 180 0 180 45 0 45 0 0 -75z
m540 63 c0 -7 -13 -28 -28 -46 l-27 -33 -113 3 -114 3 58 43 c57 41 59 42 141
42 60 0 83 -3 83 -12z m102 7 c6 -6 -9 -86 -18 -94 -9 -10 -22 15 -29 57 -6
40 -5 42 17 42 14 0 27 -2 30 -5z m398 -1 c0 -3 -12 -23 -27 -44 l-28 -39
-105 -3 c-105 -3 -105 -3 -105 -28 0 -25 1 -25 110 -30 61 -3 120 -11 132 -18
71 -40 49 -158 -34 -181 -40 -11 -313 -15 -313 -5 0 3 14 24 31 46 l32 39 91
-1 c142 -2 136 -3 136 24 0 32 -15 36 -123 36 -112 0 -152 18 -163 75 -12 67
20 111 96 126 43 8 270 11 270 3z m-519 -151 c-5 -10 -19 -28 -31 -40 -19 -22
-29 -23 -150 -23 -123 0 -130 1 -157 25 -27 24 -28 25 -9 40 16 12 54 15 188
15 158 0 168 -1 159 -17z m29 -119 c0 -3 -14 -24 -31 -45 -29 -37 -33 -39 -87
-39 -53 0 -61 4 -107 44 l-50 44 138 1 c75 1 137 -1 137 -5z m-1130 -209 c-8
-10 -31 -15 -71 -15 -54 0 -81 -12 -64 -28 4 -4 39 -9 78 -12 66 -5 72 -7 75
-28 6 -42 -13 -52 -104 -52 -70 0 -82 2 -78 15 5 11 23 15 75 15 55 0 69 3 69
15 0 12 -14 15 -63 15 -51 0 -68 4 -82 20 -17 18 -17 21 -1 45 15 23 22 25 97
25 71 0 80 -2 69 -15z m208 3 c-3 -7 -20 -15 -39 -18 l-33 -5 0 -57 c0 -48 -3
-58 -18 -58 -14 0 -18 11 -20 58 -3 57 -3 57 -36 60 -28 3 -31 6 -21 18 15 19
173 21 167 2z m192 -3 c-7 -8 -34 -15 -63 -17 -68 -4 -63 -22 8 -28 69 -6 62
-27 -10 -32 -69 -4 -59 -22 14 -26 48 -2 59 -6 54 -17 -4 -11 -24 -15 -79 -15
l-74 0 -1 35 c0 19 -1 51 -1 70 0 19 1 37 1 40 1 3 38 5 82 5 70 0 80 -2 69
-15z m214 -55 c25 -38 46 -72 46 -75 0 -3 -34 -5 -75 -5 -62 0 -73 2 -69 15 4
9 19 15 40 15 19 0 34 3 34 6 0 11 -34 64 -41 64 -4 0 -21 -22 -39 -50 -24
-37 -38 -50 -56 -50 -24 0 -23 3 26 75 32 47 57 75 69 75 11 0 35 -26 65 -70z
m180 20 c15 -27 31 -50 35 -50 4 0 18 23 31 50 34 72 57 66 81 -20 23 -81 23
-80 0 -80 -14 0 -22 12 -30 45 -13 52 -20 52 -46 -4 -29 -64 -49 -63 -84 7
-12 23 -24 42 -26 42 -3 0 -10 -20 -16 -45 -9 -34 -16 -45 -31 -45 -14 0 -18
5 -14 18 3 9 12 43 21 75 21 74 42 76 79 7z m354 38 c-3 -8 -27 -14 -61 -16
-42 -2 -57 -7 -57 -17 0 -12 14 -15 61 -15 54 0 60 -2 49 -15 -8 -10 -30 -15
-61 -15 -37 0 -49 -4 -49 -15 0 -12 13 -15 61 -15 44 0 60 -3 57 -12 -3 -9
-31 -14 -81 -16 l-77 -3 0 76 0 75 81 0 c60 0 80 -3 77 -12z m224 -5 c24 -21
23 -49 -2 -70 -20 -17 -20 -17 2 -40 l21 -23 -25 0 c-14 0 -33 9 -43 20 -12
13 -31 20 -57 20 -31 0 -38 -3 -38 -20 0 -13 -7 -20 -20 -20 -16 0 -20 7 -20
35 l0 35 68 0 c74 0 98 10 89 34 -5 13 -21 16 -77 16 -64 0 -81 6 -63 23 3 4
38 7 76 7 52 0 75 -4 89 -17z m-2087 -233 c4 -6 -6 -10 -24 -10 -40 0 -66 -36
-52 -73 10 -25 43 -43 60 -32 5 3 12 1 15 -4 10 -15 -29 -23 -58 -11 -35 13
-53 52 -40 88 14 39 83 69 99 42z m265 -8 c19 -15 21 -22 11 -40 -8 -14 -8
-29 -1 -48 6 -15 8 -29 6 -31 -8 -8 -26 7 -26 22 0 8 -9 19 -20 25 -18 10 -20
8 -20 -20 0 -16 -4 -30 -10 -30 -11 0 -14 123 -3 133 12 12 40 7 63 -11z m130
0 c30 -25 19 -61 -21 -69 -22 -4 -29 -11 -29 -29 0 -13 -4 -24 -10 -24 -11 0
-14 123 -3 133 12 12 40 7 63 -11z m135 8 c4 -6 -7 -10 -24 -10 -24 0 -31 -4
-31 -20 0 -15 7 -20 25 -20 14 0 25 -4 25 -10 0 -5 -12 -10 -26 -10 -21 0 -25
-4 -22 -22 2 -17 9 -22 25 -20 12 2 24 -2 28 -8 4 -6 -9 -10 -34 -10 l-41 0 0
63 c0 35 3 67 7 70 10 11 61 8 68 -3z m135 1 c0 -5 -9 -11 -20 -14 -17 -4 -20
-14 -20 -61 0 -31 -4 -56 -10 -56 -6 0 -10 27 -10 60 0 54 -2 60 -21 60 -11 0
-17 5 -14 10 8 12 95 13 95 1z m235 0 c3 -5 -5 -11 -17 -13 -20 -3 -23 -9 -26
-60 -4 -77 -22 -75 -22 2 0 54 -2 60 -21 60 -11 0 -17 5 -14 10 8 13 92 13
100 1z m295 -1 c0 -5 -11 -10 -25 -10 -18 0 -25 -5 -25 -20 0 -15 7 -20 25
-20 14 0 25 -4 25 -10 0 -5 -11 -10 -25 -10 -20 0 -25 -5 -25 -24 0 -19 5 -23
25 -21 14 2 28 -1 31 -7 4 -5 -11 -8 -38 -6 l-43 3 -3 54 c-2 29 -1 60 2 67 6
16 76 19 76 4z m241 0 c19 -11 27 -60 10 -60 -6 0 -3 -16 5 -35 13 -31 13 -35
-1 -35 -8 0 -15 9 -15 20 0 10 -9 24 -20 30 -18 10 -20 8 -20 -20 0 -20 -5
-30 -15 -30 -20 0 -22 126 -2 133 20 9 37 8 58 -3z m139 0 c0 -5 -11 -10 -25
-10 -18 0 -25 -5 -25 -20 0 -15 7 -20 25 -20 14 0 25 -4 25 -10 0 -5 -11 -10
-25 -10 -20 0 -25 -5 -25 -24 0 -21 4 -24 24 -20 14 2 28 0 31 -6 4 -6 -10
-10 -34 -10 -32 0 -41 4 -42 18 -8 118 -7 122 37 122 19 0 34 -4 34 -10z m115
0 c4 -6 -5 -10 -19 -10 -19 0 -26 -5 -26 -20 0 -11 5 -20 12 -20 16 0 48 -30
48 -46 0 -21 -43 -44 -68 -37 -12 3 -22 9 -22 14 0 5 10 7 23 4 15 -4 28 -1
36 9 11 13 9 18 -18 33 -17 10 -33 24 -36 32 -12 30 53 68 70 41z m140 0 c3
-5 -3 -10 -14 -10 -19 0 -21 -6 -21 -60 0 -77 -18 -79 -22 -2 -3 51 -6 57 -26
60 -12 2 -20 8 -17 13 8 12 92 12 100 -1z m129 -11 c31 -24 35 -67 9 -97 -28
-31 -56 -35 -86 -11 -37 28 -37 80 -1 108 15 12 32 21 39 21 7 0 24 -9 39 -21z
m123 15 c27 -7 39 -39 23 -59 -8 -10 -8 -19 -1 -34 14 -25 14 -41 1 -41 -5 0
-12 11 -16 25 -4 16 -13 25 -25 25 -14 0 -19 -7 -19 -25 0 -14 -4 -25 -10 -25
-11 0 -14 123 -3 133 8 8 21 9 50 1z m293 -4 c0 -5 -9 -10 -20 -10 -18 0 -20
-7 -20 -60 0 -33 -4 -60 -10 -60 -6 0 -10 27 -10 60 0 54 -2 60 -21 60 -11 0
-17 5 -14 10 3 6 26 10 51 10 24 0 44 -4 44 -10z m205 -15 c29 -28 32 -65 8
-93 -28 -31 -56 -35 -86 -11 -19 14 -27 30 -27 52 0 37 7 49 35 65 30 17 43
15 70 -13z m-2448 -50 c16 -49 18 -65 8 -65 -7 0 -15 9 -18 20 -3 12 -14 20
-26 20 -11 0 -25 -9 -31 -20 -23 -43 -27 -17 -7 45 14 44 26 65 37 65 11 0 23
-21 37 -65z m823 0 c0 -37 -4 -65 -10 -65 -6 0 -10 28 -10 65 0 37 4 65 10 65
6 0 10 -28 10 -65z m70 4 c0 -60 0 -61 25 -57 14 3 28 1 31 -3 3 -5 -13 -9
-35 -9 l-41 0 0 65 c0 37 4 65 10 65 6 0 10 -27 10 -61z m1218 -1 c12 -33 20
-63 18 -66 -8 -7 -26 9 -26 24 0 23 -51 18 -57 -6 -3 -11 -11 -20 -19 -20 -13
0 -10 13 25 103 17 43 35 32 59 -35z m192 -3 c0 -37 -4 -65 -10 -65 -6 0 -10
28 -10 65 0 37 4 65 10 65 6 0 10 -28 10 -65z m265 17 l30 -47 3 48 c5 71 22
57 22 -18 0 -81 -17 -86 -57 -17 l-28 47 -3 -47 c-5 -72 -22 -58 -22 17 0 80
13 84 55 17z m-1987 -73 c-2 -6 -8 -10 -13 -10 -5 0 -11 4 -13 10 -2 6 4 11
13 11 9 0 15 -5 13 -11z m550 0 c-2 -6 -8 -10 -13 -10 -5 0 -11 4 -13 10 -2 6
4 11 13 11 9 0 15 -5 13 -11z"/>
<path d="M1840 1889 c0 -5 5 -7 10 -4 6 3 10 8 10 11 0 2 -4 4 -10 4 -5 0 -10
-5 -10 -11z"/>
<path d="M400 855 c0 -20 4 -26 18 -23 9 2 17 12 17 23 0 11 -8 21 -17 23 -14
3 -18 -3 -18 -23z"/>
<path d="M530 855 c0 -18 5 -25 19 -25 23 0 34 23 18 39 -19 19 -37 12 -37
-14z"/>
<path d="M1580 855 c0 -20 4 -26 18 -23 9 2 17 12 17 23 0 11 -8 21 -17 23
-14 3 -18 -3 -18 -23z"/>
<path d="M2076 864 c-22 -21 -20 -57 4 -79 23 -21 46 -14 62 19 9 20 8 30 -6
51 -19 29 -38 32 -60 9z"/>
<path d="M2230 855 c0 -28 21 -33 40 -10 15 18 5 35 -21 35 -14 0 -19 -7 -19
-25z"/>
<path d="M2696 864 c-21 -20 -20 -58 0 -79 22 -22 46 -15 62 18 12 24 11 31
-2 53 -19 28 -38 31 -60 8z"/>
<path d="M267 840 c-3 -13 0 -20 9 -20 15 0 19 26 5 34 -5 3 -11 -3 -14 -14z"/>
<path d="M2385 847 c-8 -19 -2 -31 13 -26 5 2 6 13 2 24 -7 19 -8 19 -15 2z"/>
</g>
</svg>
