<?xml version="1.0" encoding="iso-8859-1"?>
<!-- Generator: Adobe Illustrator 19.0.0, SVG Export Plug-In . SVG Version: 6.00 Build 0)  -->
<svg version="1.1" id="Capa_1" xmlns="http://www.w3.org/2000/svg" xmlns:xlink="http://www.w3.org/1999/xlink" x="0px" y="0px"
	 fill="#ffffff" viewBox="0 0 512 512" style="enable-background:new 0 0 512 512;" xml:space="preserve">
<g>
	<g>
		<path d="M420.25,81v7.5c-13.51,0-24.5-10.99-24.5-24.5h-15c0,13.51-10.99,24.5-24.5,24.5v15c6.22,0,11.902,2.334,16.227,6.166
			l-64.227,64.227L254.857,120.5l24.5-24.5h44.893V81H44.75v111h15v-4.393l24.5-24.5l53.393,53.393L59.75,294.393V256h-15v256h431
			V81H420.25z M388.25,87.116c2.471,3.412,5.472,6.413,8.884,8.884c-3.412,2.471-6.413,5.472-8.884,8.884
			c-2.471-3.412-5.472-6.413-8.884-8.884C382.778,93.529,385.779,90.528,388.25,87.116z M59.75,166.393V96h70.393L59.75,166.393z
			 M94.857,152.5l56.5-56.5h106.785L148.25,205.893L94.857,152.5z M244.25,131.107l53.393,53.393L180.25,301.893L126.857,248.5
			L244.25,131.107z M276.25,227.107l53.393,53.393L180.25,429.893L126.857,376.5L276.25,227.107z M59.75,315.607l56.5-56.5
			l53.393,53.393L59.75,422.393V315.607z M59.75,497v-53.393l56.5-56.5l53.393,53.393l-56.5,56.5H59.75z M134.357,497
			L276.25,355.107l53.393,53.393l-88.5,88.5H134.357z M262.357,497L372.25,387.107l53.393,53.393l-56.5,56.5H262.357z M460.75,497
			h-70.393l70.393-70.393V497z M460.75,405.393l-24.5,24.5L382.857,376.5l77.893-77.893V405.393z M460.75,277.393l-120.5,120.5
			L286.857,344.5L460.75,170.607V277.393z M460.75,149.393l-120.5,120.5L286.857,216.5l93.4-93.4c0.323,1.584,0.493,3.222,0.493,4.9
			h15c0-13.51,10.99-24.5,24.5-24.5V96h40.5V149.393z"/>
	</g>
</g>
<g>
	<g>
		<path d="M427.75,0h-15c0,13.51-10.99,24.5-24.5,24.5v15c13.51,0,24.5,10.99,24.5,24.5h15c0-13.51,10.99-24.5,24.5-24.5v-15
			C438.74,24.5,427.75,13.51,427.75,0z M420.25,40.884c-2.471-3.412-5.472-6.413-8.884-8.884c3.412-2.471,6.413-5.472,8.884-8.884
			c2.471,3.412,5.472,6.413,8.884,8.884C425.722,34.471,422.721,37.472,420.25,40.884z"/>
	</g>
</g>
<g>
	<g>
		<path d="M75.75,192h-15c0,13.51-10.99,24.5-24.5,24.5v15c13.51,0,24.5,10.99,24.5,24.5h15c0-13.51,10.99-24.5,24.5-24.5v-15
			C86.74,216.5,75.75,205.51,75.75,192z M68.25,232.884c-2.471-3.412-5.472-6.413-8.884-8.884c3.412-2.471,6.413-5.472,8.884-8.884
			c2.471,3.412,5.472,6.413,8.884,8.884C73.722,226.471,70.721,229.472,68.25,232.884z"/>
	</g>
</g>
<g>
</g>
<g>
</g>
<g>
</g>
<g>
</g>
<g>
</g>
<g>
</g>
<g>
</g>
<g>
</g>
<g>
</g>
<g>
</g>
<g>
</g>
<g>
</g>
<g>
</g>
<g>
</g>
<g>
</g>
</svg>
