<svg fill="#ffffff" height="512" viewBox="0 0 60 60" width="512" xmlns="http://www.w3.org/2000/svg"><g id="Page-1" fill="#ffffff" fill-rule="evenodd"><g id="013---Couch-Cleaning" fill="#ffffff" fill-rule="nonzero" transform="translate(-1)"><path id="Shape" d="m11 31c-2.76142375 0-5 2.2385763-5 5s2.23857625 5 5 5c2.7614237 0 5-2.2385763 5-5-.0033061-2.7600532-2.2399468-4.9966939-5-5zm0 8c-1.65685425 0-3-1.3431458-3-3s1.34314575-3 3-3c1.6568542 0 3 1.3431458 3 3s-1.3431458 3-3 3z"/><path id="Shape" d="m51 31c-2.7614237 0-5 2.2385763-5 5s2.2385763 5 5 5 5-2.2385763 5-5c-.0033061-2.7600532-2.2399468-4.9966939-5-5zm0 8c-1.6568542 0-3-1.3431458-3-3s1.3431458-3 3-3 3 1.3431458 3 3-1.3431458 3-3 3z"/><path id="Shape" d="m35 8h-14c-5.5203344.00606237-9.9939376 4.4796656-10 10v8c-4.5235354-.0091961-8.48768729 3.0249738-9.66018174 7.3939226s.73985759 8.9801956 4.66018174 11.2370774v12.369c0 1.6568542 1.34314575 3 3 3h44c1.6568542 0 3-1.3431458 3-3v-12.37c3.9192647-2.2573233 5.8307767-6.8679445 4.6584044-11.2362036-1.1723722-4.3682591-5.1355653-7.4022014-9.6584044-7.3937964v-9c0-.5522847-.4477153-1-1-1s-1 .4477153-1 1v9.2c-4.6532582.9561641-7.9947755 5.0495227-8 9.8v4h-20v-4c-.0052245-4.7504773-3.3467418-8.8438359-8-9.8v-8.2c.0049599-4.4162219 3.5837781-7.9950401 8-8h14c.5522847 0 1-.44771525 1-1s-.4477153-1-1-1zm-14 50v-8h20v8zm22-22c.0033764-3.3962912 2.1526538-6.4195927 5.3592792-7.5386811 3.2066254-1.1190885 6.7703077-.0895674 8.8861348 2.5671375 2.1158271 2.656705 2.321726 6.3603992.5134142 9.2352582-1.8083117 2.8748589-5.235919 4.2930456-8.5468282 3.5362854-.5398583-.1170844-1.0724156.2256417-1.1895.7655s.2256417 1.0724156.7655 1.1895c.7348522.1608644 1.4847493.2429944 2.237.245 1.010033-.0034786 2.01349-.1626826 2.975-.472v11.472c0 .5522847-.4477153 1-1 1h-10v-8c1.6568542 0 3-1.3431458 3-3v-4c0-1.6568542-1.3431458-3-3-3zm0 6c.5522847 0 1 .4477153 1 1v4c0 .5522847-.4477153 1-1 1h-24c-.5522847 0-1-.4477153-1-1v-4c0-.5522847.4477153-1 1-1zm-24-6v4c-1.6568542 0-3 1.3431458-3 3v4c0 1.6568542 1.3431458 3 3 3v8h-10c-.55228475 0-1-.4477153-1-1v-11.473c.9617089.310039 1.96555625.4695887 2.976.473.7518487-.0013513 1.5014132-.0828112 2.236-.243.5398583-.1170844.8825844-.6496417.7655-1.1895s-.6496417-.8825844-1.1895-.7655c-3.31409965.7599238-6.74647548-.6580064-8.55800308-3.5353504s-1.60638404-6.5853955.51148805-9.2453501 5.68571283-3.6906062 8.89576003-2.5697416c3.2100473 1.1208645 5.3608984 4.1483337 5.362755 7.5484421z"/><path id="Shape" d="m21 12c-3.3123376.0033074-5.9966926 2.6876624-6 6 0 .5522847.4477153 1 1 1s1-.4477153 1-1c0-2.209139 1.790861-4 4-4 .5522847 0 1-.4477153 1-1s-.4477153-1-1-1z"/><path id="Shape" d="m23 18c-.5522847 0-1 .4477153-1 1v2c0 .5522847.4477153 1 1 1s1-.4477153 1-1v-2c0-.5522847-.4477153-1-1-1z"/><path id="Shape" d="m23 24c-.5522847 0-1 .4477153-1 1v2c0 .5522847.4477153 1 1 1s1-.4477153 1-1v-2c0-.5522847-.4477153-1-1-1z"/><path id="Shape" d="m25 24h2c.5522847 0 1-.4477153 1-1s-.4477153-1-1-1h-2c-.5522847 0-1 .4477153-1 1s.4477153 1 1 1z"/><path id="Shape" d="m19 24h2c.5522847 0 1-.4477153 1-1s-.4477153-1-1-1h-2c-.5522847 0-1 .4477153-1 1s.4477153 1 1 1z"/><path id="Shape" d="m38 21c0 .5522847.4477153 1 1 1s1-.4477153 1-1v-2c0-.5522847-.4477153-1-1-1s-1 .4477153-1 1z"/><path id="Shape" d="m38 27c0 .5522847.4477153 1 1 1s1-.4477153 1-1v-2c0-.5522847-.4477153-1-1-1s-1 .4477153-1 1z"/><path id="Shape" d="m44 23c0-.5522847-.4477153-1-1-1h-2c-.5522847 0-1 .4477153-1 1s.4477153 1 1 1h2c.5522847 0 1-.4477153 1-1z"/><path id="Shape" d="m37 22h-2c-.5522847 0-1 .4477153-1 1s.4477153 1 1 1h2c.5522847 0 1-.4477153 1-1s-.4477153-1-1-1z"/><path id="Shape" d="m46.009 18c.5522847 0 1-.4477153 1-1 0-.286.068-7 5.991-7 .5522847 0 1-.44771525 1-1s-.4477153-1-1-1c-5.894 0-5.99-6.716-5.991-7 0-.55228475-.4477153-1-1-1s-1 .44771525-1 1c0 .286-.068 7-5.99 7-.5522847 0-1 .44771525-1 1s.4477153 1 1 1c5.894 0 5.989 6.716 5.99 7 0 .5522847.4477153 1 1 1zm-3.021-9c1.3398642-.81894286 2.3947492-2.03096059 3.021-3.471.6266268 1.44011027 1.6818489 2.65211425 3.022 3.471-1.3401511.81888575-2.3953732 2.0308897-3.022 3.471-.6262508-1.4400394-1.6811358-2.65205714-3.021-3.471z"/><circle id="Oval" cx="25" cy="13" r="1"/></g></g></svg>